<?xml version="1.0" encoding="UTF-8"?>
<svg xmlns="http://www.w3.org/2000/svg" width="512" height="512" viewBox="0 0 512 512">
  <circle cx="256" cy="256" r="256" fill="#0A0A0A"/>
  <g transform="translate(126,126) scale(0.52)">
    <path d="M500,207.04h-100.94c-16.73,0-25.11-20.23-13.28-32.06l71.38-71.38-60.76-60.76-71.37,71.37c-11.83,11.83-32.06,3.45-32.06-13.28V0h-85.92v100.94c0,16.73-20.23,25.11-32.06,13.28L103.6,42.84l-60.76,60.76,71.38,71.38c11.83,11.83,3.45,32.06-13.28,32.06H0v85.92h100.94c16.73,0,25.11,20.23,13.28,32.06l-71.38,71.38,60.76,60.76,71.38-71.38c11.83-11.83,32.06-3.45,32.06,13.28v100.94h85.92v-100.94c0-16.73,20.23-25.11,32.06-13.28l71.37,71.37,60.76-60.76-71.38-71.38c-11.83-11.83-3.45-32.06,13.28-32.06h100.94v-85.92Z" fill="#FFFFFF"/>
  </g>
</svg>
